<svg width="32" height="32" viewBox="0 0 8.4666662 8.4666669" version="1.1" id="svg927" shape-rendering="optimizeQuality">

   <g id="icon-validated" transform="translate(-4.0066072,-13.744719)">
      <path
         style="fill:#0000ff;fill-opacity:1;stroke:#0000ff;stroke-width:0.707368;stroke-miterlimit:4;stroke-dasharray:none;stroke-opacity:1;paint-order:fill markers stroke"
         id="path923-0"
         d="M 8.4393639,19.423429 C 8.3497829,19.277341 8.2705849,19.12453 8.2062279,18.965574 8.1812139,18.9038 8.1598089,18.840622 8.1365959,18.778149 8.0315699,18.484922 7.9380969,18.18451 7.7945379,17.906842 c -0.108848,-0.210535 -0.13991,-0.240069 -0.276969,-0.433701 -0.15111,-0.189668 -0.625822,-0.787125 -0.827964,-0.919586 -0.051886,-0.034 -0.106432,-0.06376 -0.159652,-0.09563 l -0.05857,0.169553 v 0 c 0,0 0.108353,0.0571 0.16028,0.08947 0.203172,0.126681 0.676137,0.722251 0.824928,0.910708 0.04939,0.07053 0.10253,0.138564 0.148169,0.211576 0.212427,0.339603 0.335439,0.724404 0.462816,1.101094 0.02279,0.06428 0.04408,0.12913 0.06848,0.192826 0.06407,0.167204 0.141665,0.32972 0.228803,0.486048 l 0.0745,-0.195765 z"
         shape-rendering="optimizeQuality" />
      <path
         style="fill:#0000ff;fill-opacity:1;stroke:#0000ff;stroke-width:0.707368;stroke-miterlimit:4;stroke-dasharray:none;stroke-opacity:1;paint-order:fill markers stroke"
         id="path927-76"
         d="m 9.7849799,17.287344 c -0.02141,0.02649 -0.04363,0.05234 -0.06423,0.07947 -0.123941,0.163287 -0.238245,0.334047 -0.352166,0.50434 -0.163245,0.244027 -0.120351,0.179633 -0.274141,0.419495 0,0 -0.06635,-0.155818 -0.06635,-0.155818 v 0 c 0.226938,-0.344597 0.449693,-0.691921 0.677522,-1.035922 0,0 0.07936,0.188431 0.07936,0.188431 z"
         shape-rendering="optimizeQuality" />
      <path id="path1540-17"
         style="fill:#0000ff;fill-opacity:1;stroke:#0000ff;stroke-width:0.735542;stroke-miterlimit:4;stroke-dasharray:none;stroke-opacity:1;paint-order:fill markers stroke"
         d="M 11.296332,15.60821 C 9.9874989,13.9202 7.5580719,13.612828 5.8700759,14.921678 c -1.687992,1.308838 -1.995353,3.738251 -0.686509,5.426239 1.308831,1.687983 3.738227,1.995351 5.4262151,0.686526 1.688002,-1.308825 1.995381,-3.738236 0.68655,-5.426233 z m 0,0 c 1.247293,1.608604 0.507596,4.139156 -1.137399,5.414636 -1.6449811,1.275477 -3.8410481,0.6889 -5.0883141,-0.919711 -1.247267,-1.608596 -0.595431,-3.804484 1.049536,-5.079962 1.644972,-1.275489 3.9288971,-1.023563 5.1761771,0.585037 z"
         shape-rendering="optimizeQuality" />
   </g>
   <g id="icon-warning">
      <path
         style="fill:#0000ff;fill-opacity:1;stroke:#0000ff;stroke-width:0.671527;stroke-miterlimit:4;stroke-dasharray:none;stroke-opacity:1;paint-order:fill markers stroke"
         id="path923"
         d="m 4.327552,2.1485906 c -5.464e-4,0.1544398 0.011272,0.3091893 0.038962,0.4617132 0.010758,0.059277 0.025329,0.1179414 0.03799,0.176911 0.062776,0.274945 0.029621,0.5460769 0.051395,0.8271033 0.016509,0.2130799 0.00534,0.2503723 -0.011039,0.463663 -0.03044,0.216823 0.00536,0.426623 -0.098421,0.6233257 -0.026636,0.050492 -0.057754,0.09896 -0.086635,0.1484407 L 4.1216057,4.7466746 v 0 c 0.030126,-0.047997 0.062856,-0.094736 0.090376,-0.1439903 0.107663,-0.1927362 0.071358,-0.4002637 0.1004454,-0.6150689 0.00551,-0.077437 0.015519,-0.1547163 0.016534,-0.2323101 0.00484,-0.3609788 0.019345,-0.7109161 -0.067743,-1.060584 C 4.2472561,2.634556 4.2317211,2.5746583 4.2194351,2.5141931 4.1872071,2.3554563 4.1689771,2.193985 4.1621121,2.0328077 l 0.1654355,0.1157821 z"
         shape-rendering="optimizeQuality" />
      <path
         style="fill:#0000ff;fill-opacity:1;stroke:#0000ff;stroke-width:0.707368;stroke-miterlimit:4;stroke-dasharray:none;stroke-opacity:1;paint-order:fill markers stroke"
         id="path925"
         d="m 4.4701761,6.1090482 c -0.1661589,-0.00129 -0.2678141,0.048442 -0.4768171,0.0348 l 0.082963,0.1442407 v 0 c 0.2108066,0.0065 0.3388081,-0.00184 0.4977466,-0.00114 z"
         shape-rendering="optimizeQuality" />
      <path id="path1540"
         style="fill:#0000ff;fill-opacity:1;stroke:#0000ff;stroke-width:0.735542;stroke-miterlimit:4;stroke-dasharray:none;stroke-opacity:1;paint-order:fill markers stroke"
         d="M 7.2897242,1.8634913 C 5.9808918,0.17548085 3.5514649,-0.13189111 1.8634686,1.1769595 0.17547664,2.4857977 -0.1318842,4.9152104 1.1769598,6.6031978 2.4857909,8.2911809 4.9151867,8.598549 6.6031751,7.2897247 8.2911769,5.980899 8.5985558,3.5514885 7.2897242,1.8634913 Z m 0,0 C 8.5370178,3.4720956 7.7973202,6.0026476 6.1523256,7.2781269 4.5073442,8.5536044 2.311278,7.9670275 1.0640115,6.3584166 -0.18325518,4.7498199 0.46858097,2.5539319 2.1135479,1.2784543 3.7585194,0.00296484 6.042445,0.25489081 7.2897242,1.8634913 Z"
         shape-rendering="optimizeQuality" />
   </g>
   <g id="icon-error" transform="translate(-3.8239031,-22.733744)">
      <path
         style="fill:#0000ff;fill-opacity:1;stroke:#0000ff;stroke-width:0.865187;stroke-miterlimit:4;stroke-dasharray:none;stroke-opacity:1;paint-order:fill markers stroke"
         id="path923-2-5"
         d="m 6.9809179,26.028389 c 0.06086,0.07662 0.118091,0.155003 0.177138,0.232499 0.272435,0.363762 0.534555,0.736506 0.845551,1.080768 0.235799,0.26103 0.287864,0.297573 0.549154,0.537476 0.276178,0.234942 0.572875,0.428818 0.881907,0.592438 0.07932,0.042 0.15973,0.07871 0.239598,0.118067 l -0.01411,-0.210887 v 0 c -0.07909,-0.0368 -0.158726,-0.07043 -0.237277,-0.11041 -0.307393,-0.15643 -0.60102,-0.348002 -0.873833,-0.581423 -0.09453,-0.08738 -0.192308,-0.171681 -0.283589,-0.262143 -0.424661,-0.42088 -0.764361,-0.898314 -1.105266,-1.365653 -0.05948,-0.07974 -0.117361,-0.160204 -0.178449,-0.239211 -0.16037,-0.207406 -0.51735,-0.602719 -0.51735,-0.602719 l -0.05998,0.174715 c 0.224268,0.213117 0.375285,0.409763 0.576509,0.636483 z"
         shape-rendering="optimizeQuality" />
      <path
         style="fill:#0000ff;fill-opacity:1;stroke:#0000ff;stroke-width:0.707368;stroke-miterlimit:4;stroke-dasharray:none;stroke-opacity:1;paint-order:fill markers stroke"
         id="path925-8-7"
         d="m 9.7014799,25.256268 c -0.257696,0.217114 -0.834048,0.840063 -1.065442,1.084294 l -0.155973,-0.207858 c 0,0 0.919674,-0.837234 1.176666,-1.077531 z"
         shape-rendering="optimizeQuality" />
      <path
         style="fill:#0000ff;fill-opacity:1;stroke:#0000ff;stroke-width:0.707368;stroke-miterlimit:4;stroke-dasharray:none;stroke-opacity:1;paint-order:fill markers stroke"
         id="path927-7-6"
         d="m 7.0944169,27.740318 c -0.148798,0.141007 -0.371517,0.354899 -0.511565,0.504446 -0.200685,0.214298 -0.147908,0.157719 -0.338588,0.369442 l -0.04018,-0.16452 v 0 c 0.279856,-0.303198 0.482945,-0.554954 0.763583,-0.857419 z"
         shape-rendering="optimizeQuality" />
      <path id="path1540-1-1"
         style="fill:#0000ff;fill-opacity:1;stroke:#0000ff;stroke-width:0.735542;stroke-miterlimit:4;stroke-dasharray:none;stroke-opacity:1;paint-order:fill markers stroke"
         d="M 11.113627,24.597236 C 9.8047949,22.909225 7.3753679,22.601853 5.6873719,23.910704 c -1.687992,1.308838 -1.995353,3.738251 -0.686509,5.426238 1.308831,1.687983 3.738227,1.995352 5.4262151,0.686527 1.688002,-1.308826 1.995381,-3.738236 0.686549,-5.426233 z m 0,0 c 1.247294,1.608604 0.507596,4.139156 -1.1373981,5.414635 -1.644982,1.275478 -3.841048,0.688901 -5.088314,-0.91971 -1.247267,-1.608597 -0.595431,-3.804485 1.049536,-5.079962 1.644971,-1.27549 3.928897,-1.023564 5.1761761,0.585037 z"
         shape-rendering="optimizeQuality" />
   </g>
</svg>