<?xml version="1.0" encoding="UTF-8" standalone="no"?>
<!-- Created with Inkscape (http://www.inkscape.org/) -->

<svg
   width="200mm"
   height="200mm"
   viewBox="0 0 200 200"
   version="1.1"
   id="svg5"
   inkscape:version="1.1 (c68e22c387, 2021-05-23)"
   sodipodi:docname="OMQ.svg"
   xmlns:inkscape="http://www.inkscape.org/namespaces/inkscape"
   xmlns:sodipodi="http://sodipodi.sourceforge.net/DTD/sodipodi-0.dtd"
   xmlns="http://www.w3.org/2000/svg"
   xmlns:svg="http://www.w3.org/2000/svg">
  <sodipodi:namedview
     id="namedview7"
     pagecolor="#ffffff"
     bordercolor="#666666"
     borderopacity="1.0"
     inkscape:pageshadow="2"
     inkscape:pageopacity="0.0"
     inkscape:pagecheckerboard="true"
     inkscape:document-units="mm"
     showgrid="false"
     inkscape:zoom="0.55811637"
     inkscape:cx="470.33202"
     inkscape:cy="56.439843"
     inkscape:window-width="1920"
     inkscape:window-height="1009"
     inkscape:window-x="-8"
     inkscape:window-y="-8"
     inkscape:window-maximized="1"
     inkscape:current-layer="layer1"
     showguides="false" />
  <defs
     id="defs2" />
  <g
     inkscape:label="Calque 1"
     inkscape:groupmode="layer"
     id="layer1">
    <g
       id="g4341"
       transform="translate(13.09346,-57.266137)">
      <path
         id="path3285"
         style="fill:#ffffff;fill-opacity:1;stroke:none;stroke-width:0.999999px;stroke-linecap:butt;stroke-linejoin:miter;stroke-opacity:1"
         d="m 347.93555,364.74023 c -126.09574,1.7e-4 -228.31643,102.32843 -228.31641,228.55665 -2e-5,126.22822 102.22068,228.55647 228.31641,228.55664 126.09649,9.1e-4 228.31838,-102.32766 228.31836,-228.55664 2e-5,-126.22899 -102.22186,-228.55756 -228.31836,-228.55665 z M 46.585938,377.16211 2.9121094,492.72852 l 4.4226496,69.2453 34.883657,56.84867 -16.237947,50.39235 -46.585938,160.58594 41.433594,-17.91797 33.148437,-130.34961 40.089844,-77.04492 14.109374,-64.50195 -4.70312,-83.0918 z m 614.769532,1.9375 -46.56445,97.2793 -23.29297,91.82617 21.72461,43.67383 -13.21289,149.16406 -30.01172,63.83008 26.20312,-12.09375 34.04297,-72.11914 8.28711,-108.62305 18.14258,-43.89844 13.66211,-78.61328 z"
         transform="scale(0.26458333)"
         sodipodi:nodetypes="cscsccccccccccccccccccccccccc" />
      <g
         id="g2770"
         transform="matrix(0.87715948,0,0,0.87715948,-0.1344763,26.957393)">
        <g
           id="g2338"
           style="stroke:#832d1e;stroke-width:1.905;stroke-miterlimit:4;stroke-dasharray:none;stroke-opacity:1">
          <g
             id="g1728"
             transform="translate(-13.011202,24.929773)"
             style="stroke:#832d1e;stroke-width:1.905;stroke-miterlimit:4;stroke-dasharray:none;stroke-opacity:1">
            <path
               style="fill:#832d1e;stroke:#832d1e;stroke-width:1.905;stroke-miterlimit:4;stroke-dasharray:none;stroke-opacity:1;paint-order:fill markers stroke"
               id="path923"
               d="m 24.72556,58.202155 c -0.596018,3.16989 -1.421873,6.30239 -2.532357,9.333108 -0.431579,1.177856 -0.931103,2.329696 -1.396655,3.494542 -2.239473,5.417799 -4.731075,10.789833 -6.236514,16.477401 -1.14145,4.312414 -1.081324,5.116891 -1.615645,9.549958 -0.288989,4.555196 0.267118,9.039026 1.413551,13.440956 0.294274,1.12992 0.679334,2.23422 1.019002,3.35133 0,0 2.959369,-1.62546 2.959369,-1.62546 v 0 c -0.368547,-1.09109 -0.790289,-2.16563 -1.105641,-3.27326 -1.234017,-4.33432 -1.788588,-8.76966 -1.483366,-13.278747 0.202051,-1.607918 0.320911,-3.228488 0.606151,-4.823751 1.327045,-7.421745 4.472806,-14.344311 7.455092,-21.208868 0.493608,-1.185116 1.016571,-2.358427 1.480824,-3.555349 1.218746,-3.142128 2.189481,-6.389841 2.948952,-9.671701 0,0 -3.512763,1.789841 -3.512763,1.789841 z" />
            <path
               style="fill:#832d1e;stroke:#832d1e;stroke-width:1.905;stroke-miterlimit:4;stroke-dasharray:none;stroke-opacity:1;paint-order:fill markers stroke"
               id="path925"
               d="m 31.07831,65.577637 c -0.100293,6.341533 -0.995881,12.640016 -1.804628,18.9206 0,0 2.8081,-1.386919 2.8081,-1.386919 v 0 c 0.785601,-6.429169 1.685422,-12.844235 2.461744,-19.273726 0,0 -3.465216,1.740045 -3.465216,1.740045 z" />
            <path
               style="fill:#832d1e;stroke:#832d1e;stroke-width:1.905;stroke-miterlimit:4;stroke-dasharray:none;stroke-opacity:1;paint-order:fill markers stroke"
               id="path927"
               d="m 36.411587,73.770386 c -0.01968,0.640797 -0.0199,1.282491 -0.05909,1.922394 -0.235884,3.851214 -0.70104,7.690773 -1.165918,11.518968 -0.66616,5.485715 -0.487765,4.040383 -1.237737,9.350608 0,0 2.85932,-1.408885 2.85932,-1.408885 v 0 c 0.991878,-7.702521 2.076906,-15.392612 3.048752,-23.097556 0,0 -3.445328,1.714471 -3.445327,1.714471 z" />
            <path
               style="fill:#832d1e;stroke:#832d1e;stroke-width:1.905;stroke-miterlimit:4;stroke-dasharray:none;stroke-opacity:1;paint-order:fill markers stroke"
               id="path929"
               d="m 42.823936,59.504548 c 0.08795,2.679218 0.121973,5.360778 0.153591,8.041309 0.09366,4.265527 0.04491,8.53323 0.186735,12.797774 0.04342,1.305618 0.238278,5.390777 0.301636,6.748277 0.213325,5.3838 0.547108,10.772955 0.495416,16.163782 -0.01116,1.16351 -0.06428,2.32624 -0.09642,3.48936 -0.200316,4.08076 -0.615675,8.16838 -1.508511,12.16114 -0.339291,1.5173 -0.662615,2.56035 -1.088115,4.03538 -1.532377,5.03502 -4.238881,9.57605 -6.760255,14.15793 -0.500438,1.00062 -1.013224,1.99517 -1.501314,3.00188 -0.358132,0.73865 -2.807645,5.97369 -3.149611,6.70854 -1.000241,2.14942 -1.95209,4.16485 -2.850721,6.35924 -0.428773,1.04703 -0.813121,2.11171 -1.219682,3.16757 -2.339464,6.50391 -3.543675,13.33645 -4.887401,20.09609 -0.207642,1.06384 -0.414686,2.1278 -0.622925,3.19153 -0.485071,2.47784 -0.622913,3.09154 -1.044371,5.51345 -0.324697,1.86586 -0.610561,3.73317 -0.982916,5.59034 0,0 3.36939,-1.6454 3.36939,-1.6454 v 0 c 0.667828,-4.72607 1.369835,-9.44589 2.319261,-14.12582 1.265447,-6.76335 2.645628,-13.54337 4.926958,-20.04853 0.404373,-1.04962 0.786432,-2.10812 1.21312,-3.14887 2.244405,-5.4744 4.896204,-10.78211 7.559699,-16.06012 2.57911,-4.63152 5.369893,-9.22266 6.926328,-14.32639 0.404463,-1.52573 0.67232,-2.44426 0.98302,-4.0196 0.787982,-3.99528 1.091811,-8.07297 1.327629,-12.13118 0.187827,-6.568912 0.02758,-13.13591 -0.375232,-19.695576 -0.131591,-2.340864 -0.258726,-4.369805 -0.336079,-6.71967 -0.141518,-4.299141 -0.02659,-8.598117 0.02635,-12.897718 0.03185,-2.732709 0.06649,-5.466363 0.153588,-8.197824 0,0 -3.519167,1.793106 -3.519167,1.793106 z" />
          </g>
          <path
             style="fill:#832d1e;stroke:#832d1e;stroke-width:1.905;stroke-miterlimit:4;stroke-dasharray:none;stroke-opacity:1;paint-order:fill markers stroke"
             id="path968"
             d="m 180.6431,139.38839 c -0.15106,-2.17368 0.37299,-4.31494 0.80864,-6.42775 1.14814,-5.34771 2.68631,-10.59707 4.26011,-15.83159 1.90546,-6.0403 4.31526,-11.8975 6.94153,-17.654944 2.3531,-5.11686 3.99532,-10.06088 6.92888,-14.86526 0.33445,-0.50962 0.64194,-1.038 1.00336,-1.52887 0.24939,-0.33873 0.51844,-0.66688 0.8252,-0.95468 0.1966,-0.18444 0.90316,-0.58864 0.67201,-0.44994 -0.95751,0.59012 -1.91501,1.18024 -2.87252,1.77037 0.0884,0.002 0.18305,-0.0261 0.26523,0.007 0.0727,0.0289 0.11121,0.11013 0.16681,0.16519 0.0409,0.13628 0.0932,0.26964 0.12265,0.40886 0.18082,0.85596 0.17865,1.78992 0.20582,2.65581 0.0328,1.04371 0.0403,2.31021 0.0513,3.34309 0.0342,4.33302 0.18212,8.66386 0.23743,12.996734 0.0433,4.28435 0.096,8.56816 0.10112,12.85283 0.0671,4.05234 -0.0833,8.09488 -0.43062,12.13101 -0.54116,4.81047 -1.23228,9.60565 -2.00145,14.38472 -0.6669,3.97605 -6.06321,13.77534 -6.4243,17.79193 -0.24085,4.61137 -1.51021,24.5136 -2.42593,29.03273 -0.88844,4.61026 -2.50283,9.0269 -4.09365,13.42965 -1.35486,3.59608 -4.81125,7.19494 -6.00975,10.84659 -0.55472,1.65566 -0.30077,0.83426 -0.76527,2.46319 l 3.41209,-1.621 v 0 c 0,0 0.21197,-0.79279 0.73367,-2.43358 1.1495,-3.61384 4.52426,-7.18923 5.8299,-10.7496 1.5768,-4.43516 3.3254,-8.84417 4.1267,-13.50544 0.84755,-4.55311 2.16066,-24.47156 2.4746,-29.09812 0.35836,-3.99174 5.73931,-13.7669 6.34667,-17.72724 0.72645,-4.80944 1.44234,-9.62317 2.06834,-14.44627 0.0816,-0.98706 0.24605,-2.87138 0.29253,-3.85626 0.12997,-2.75433 0.0529,-5.51363 0.0584,-8.26931 -0.008,-4.29209 0.0381,-8.58525 -0.068,-12.87632 -0.099,-4.337444 -0.2366,-8.676564 -0.18689,-13.015334 0.01,-0.98221 0.0256,-2.39193 0.0312,-3.39376 0.006,-1.12915 0.0867,-2.30065 -0.3158,-3.37832 -0.0988,-0.12261 -0.17049,-0.27339 -0.29651,-0.36784 -1.14326,-0.8569 -4.00502,1.76535 -4.21886,1.89025 -0.21743,0.12699 -0.39781,0.31336 -0.56403,0.50251 -0.63156,0.71869 -1.1572,1.66767 -1.64795,2.46026 -2.852,4.80443 -4.37197,9.76092 -6.73708,14.823324 -2.61752,5.77655 -5.07997,11.62988 -6.93574,17.70283 -1.59632,5.28739 -3.21439,10.57329 -4.45978,15.95723 -0.50585,2.1823 -1.05706,4.37572 -1.03571,6.63211 l 3.52557,-1.79636 z"
             sodipodi:nodetypes="cccccsscccccccccccccccccsccccccscccccsssccccccc" />
          <g
             id="g2110"
             transform="rotate(160.2721,105,148.5)"
             style="stroke:#832d1e;stroke-width:1.905;stroke-miterlimit:4;stroke-dasharray:none;stroke-opacity:1">
            <path
               id="path1540"
               style="fill:#832d1e;stroke:#832d1e;stroke-width:1.905;stroke-miterlimit:4;stroke-dasharray:none;stroke-opacity:1;paint-order:fill markers stroke"
               d="M 38.449044,170.20223 A 69.999999,69.999999 0 0 0 126.70272,215.0508 69.999999,69.999999 0 0 0 171.55079,126.79728 69.999999,69.999999 0 0 0 83.29777,81.949041 69.999999,69.999999 0 0 0 38.449044,170.20223 Z m 1.757032,0.15756 A 66.707673,68.216134 71.938669 0 1 84.3794,85.789242 66.707673,68.216134 71.938669 0 1 169.91588,128.06096 66.707673,68.216134 71.938669 0 1 125.74289,212.63085 66.707673,68.216134 71.938669 0 1 40.206076,170.35979 Z" />
            <path
               id="path1761"
               style="fill:#832d1e;stroke:#832d1e;stroke-width:1.905;stroke-miterlimit:4;stroke-dasharray:none;stroke-opacity:1;paint-order:fill markers stroke"
               d="m 65.081896,175.15589 a 47.999999,47.999999 0 0 0 66.573554,13.2625 47.999999,47.999999 0 0 0 13.26294,-66.57384 47.999999,47.999999 0 0 0 -66.574272,-13.26265 47.999999,47.999999 0 0 0 -13.262222,66.57399 z m 1.671561,-2.32541 a 45.485893,45.150677 56.266724 0 1 12.289093,-62.90114 45.485893,45.150677 56.266724 0 1 62.80847,12.75425 45.485893,45.150677 56.266724 0 1 -12.28938,62.90071 45.485893,45.150677 56.266724 0 1 -62.808183,-12.75382 z" />
          </g>
        </g>
        <g
           id="g2475"
           transform="matrix(1.5236415,0,0,1.2832499,-50.338544,-41.484962)"
           style="fill:#832d1e;fill-opacity:1;stroke:#832d1e;stroke-width:1.36238;stroke-miterlimit:4;stroke-dasharray:none;stroke-opacity:1">
          <path
             style="fill:#832d1e;fill-opacity:1;stroke:#832d1e;stroke-width:1.36238;stroke-miterlimit:4;stroke-dasharray:none;stroke-opacity:1;paint-order:fill markers stroke"
             id="path2387"
             d="m 92.596292,132.83161 c 0.272264,-1.85383 1.197631,-3.52882 2.412753,-4.93589 0.3721,-0.43088 0.786255,-0.82357 1.179381,-1.23535 0.728019,-0.71624 1.533699,-1.54274 2.326132,-2.19768 0.341209,-0.28201 1.466916,-0.97832 1.064408,-0.7941 -0.752981,0.34463 -1.510964,0.72938 -2.128491,1.28112 -0.320707,0.28654 0.795401,-0.33079 1.206439,-0.45731 0.423595,-0.13037 0.861687,-0.20788 1.292532,-0.31183 1.523884,-0.23728 3.135454,-0.59331 4.637854,-0.0327 1.00314,0.37433 1.3668,0.7572 2.2013,1.40249 2.14983,1.92158 2.8565,4.63859 3.28118,7.38015 0.003,1.21909 0.0803,1.64747 -0.2455,2.86855 -0.35283,1.32257 -0.97153,2.62862 -1.5574,3.85433 -0.85251,1.78356 -1.17132,2.32006 -2.11592,4.06594 -2.17037,3.86115 -4.37594,7.69981 -6.260876,11.71022 -1.008012,2.302 -1.823096,4.66306 -2.251527,7.14022 0,0 3.393523,-1.6563 3.393523,-1.6563 v 0 c 0.42196,-2.42551 1.21431,-4.74171 2.1885,-7.00185 1.84723,-4.00086 4.03789,-7.82223 6.20012,-11.65929 0.95141,-1.76637 1.26263,-2.29157 2.1225,-4.0955 0.56681,-1.18914 1.27923,-2.7044 1.62327,-3.99385 0.33293,-1.24783 0.24378,-1.74652 0.22359,-2.99039 -0.45552,-2.82188 -1.25268,-5.61667 -3.42094,-7.62328 -0.84678,-0.67922 -1.25903,-1.10342 -2.26791,-1.54119 -1.53665,-0.66679 -3.16881,-0.35394 -4.7589,-0.10451 -0.66685,0.13827 -1.92874,0.34994 -2.55227,0.67466 -1.470135,0.76561 -2.897348,1.61337 -4.306847,2.48559 -1.268333,0.78487 -2.204313,2.03764 -3.299682,3.01904 -0.396349,0.42745 -0.815335,0.83498 -1.189048,1.28236 -1.25951,1.50778 -2.203834,3.30001 -2.504528,5.25291 0,0 3.506357,-1.78658 3.506357,-1.78658 z" />
          <path
             style="fill:#832d1e;fill-opacity:1;stroke:#832d1e;stroke-width:1.36238;stroke-miterlimit:4;stroke-dasharray:none;stroke-opacity:1;paint-order:fill markers stroke"
             id="path2391"
             d="m 94.732921,172.17131 c 1.247206,0.92191 2.568781,1.73103 3.979198,2.3752 0.259811,0.10571 0.519621,0.21142 0.779431,0.31713 0,0 3.19873,-2.1428 3.19873,-2.1428 v 0 c -0.2575,-0.10145 -0.515,-0.20289 -0.7725,-0.30434 -1.38238,-0.59792 -2.696184,-1.35573 -3.836636,-2.3483 0,0 -3.348223,2.10311 -3.348223,2.10311 z" />
        </g>
      </g>
    </g>
  </g>
</svg>
